<svg id="Слой_2" data-name="Слой 2" xmlns="http://www.w3.org/2000/svg" viewBox="0 0 1700 360"><defs><style>.cls-1{fill:#bbc3d6;}</style></defs><title>Монтажная область 1</title><path class="cls-1" d="M254.8,307.1H232.66a20.57,20.57,0,0,1-20.57-20.57V209a8.56,8.56,0,0,0-8.56-8.56H120.68a8.56,8.56,0,0,0-8.56,8.56v89.51a8.57,8.57,0,0,1-8.57,8.57H81.41a20.57,20.57,0,0,1-20.56-20.57V66.83a8.56,8.56,0,0,1,8.56-8.56H91.55a20.57,20.57,0,0,1,20.57,20.56v71.71a8.56,8.56,0,0,0,8.56,8.56h80a11.42,11.42,0,0,0,11.42-11.42V66.83a8.57,8.57,0,0,1,8.57-8.56H242.8a20.56,20.56,0,0,1,20.56,20.56v219.7A8.57,8.57,0,0,1,254.8,307.1Z"/><path class="cls-1" d="M396.11,296.1A39.15,39.15,0,0,1,388.93,286Q381.42,303.7,362,310.32q-18.37,6.27-34.07-.23a36.11,36.11,0,0,1-21.22-22.69q-6.78-19.86,4.32-35.52t38.9-25.28l15.36-5.24-2.44-7.17q-3-8.66-9.18-12.34t-15.81-.41Q329.44,204.32,326,210t-1,12.73l-33.38,11.4a35.41,35.41,0,0,1-.17-22.39q3.56-11.53,14-21a73,73,0,0,1,25.7-14.64q23.1-7.89,40.64-.91t24.72,28L415,257.4q6.19,17.76,14.16,25.22l.67,2Zm-35.54-13.79a30.42,30.42,0,0,0,12.51-7.95,22.81,22.81,0,0,0,6.22-12L372,240.88l-12.48,4.26q-25.07,8.56-20.77,26.44l.56,2a14.09,14.09,0,0,0,7.9,8.78Q352.94,284.91,360.57,282.31Z"/><path class="cls-1" d="M466,175l1.09,15.26q14.16-17.7,38-17.7,21,0,31.25,12.32t10.5,36.87V307.1H511.51V222.62q0-11.22-4.88-16.29t-16.24-5.07q-14.89,0-22.34,12.7V307.1H432.77V175Z"/><path class="cls-1" d="M568,240.08q0-30.89,13.85-49.19t37.9-18.31q19.29,0,31.86,14.4V119.6H687V307.1H655.18l-1.7-14q-13.18,16.47-33.94,16.48-23.31,0-37.41-18.37T568,240.08Zm35.27,2.63q0,18.58,6.47,28.48t18.8,9.91q16.36,0,23.07-13.82v-52.2q-6.58-13.82-22.82-13.82Q603.3,201.26,603.3,242.71Z"/><path class="cls-1" d="M794.81,71.72l51.41,145.15a8.19,8.19,0,0,0,15.45,0L915.61,63.74a8.19,8.19,0,0,1,7.73-5.47h41.34a20.19,20.19,0,0,1,20.19,20.19V298.9a8.2,8.2,0,0,1-8.19,8.2H953.62a20.19,20.19,0,0,1-20.19-20.2V239.08l2.79-64c.41-9.37-12.69-12-15.88-3.15l-47,129.71a8.18,8.18,0,0,1-7.7,5.41H841.94a8.19,8.19,0,0,1-7.7-5.41L787.43,172.26c-3.19-8.82-16.3-6.23-15.89,3.15l2.79,63.67V298.9a8.2,8.2,0,0,1-8.2,8.2H743.25a20.19,20.19,0,0,1-20.19-20.2V66.46a8.19,8.19,0,0,1,8.19-8.19h44.53A20.19,20.19,0,0,1,794.81,71.72Z"/><path class="cls-1" d="M1167.46,255.83h-78.39a8,8,0,0,0-7.58,5.46L1068,301.63a8,8,0,0,1-7.58,5.47h-37.25a8,8,0,0,1-7.49-10.78l86.67-232.85a8,8,0,0,1,7.49-5.2h36.42a8,8,0,0,1,7.48,5.19l87.16,232.84a8,8,0,0,1-7.49,10.8h-37.24a8,8,0,0,1-7.58-5.45L1175,261.27A8,8,0,0,0,1167.46,255.83Zm-70.31-41.53h62.21l-31.28-93.14Z"/><path class="cls-1" d="M1268.22,298.5V66.87a8.6,8.6,0,0,1,8.6-8.6h68q32.82,0,58.71,14.78t40.42,42q14.52,27.27,14.52,61.95v11.45q0,34.69-14.27,61.7a102.21,102.21,0,0,1-40.24,41.87q-26,14.87-58.62,15h-68.48A8.6,8.6,0,0,1,1268.22,298.5Zm51.27-198.7V265.91h24.78q30.07,0,46-19.65T1406.48,190V176.87q0-37.93-15.72-57.5t-46-19.57Z"/><path class="cls-1" d="M1637.29,199.26h-82.22a8.11,8.11,0,0,0-8.11,8.11V257.8a8.11,8.11,0,0,0,8.11,8.11h99.31a8.11,8.11,0,0,1,8.1,8.11v25a8.11,8.11,0,0,1-8.1,8.11H1503.8a8.11,8.11,0,0,1-8.11-8.11V66.38a8.11,8.11,0,0,1,8.11-8.11H1654a8.11,8.11,0,0,1,8.11,8.11V91.69A8.11,8.11,0,0,1,1654,99.8h-99a8.11,8.11,0,0,0-8.11,8.1V151a8.11,8.11,0,0,0,8.11,8.11h82.22a8.11,8.11,0,0,1,8.1,8.11v23.94A8.11,8.11,0,0,1,1637.29,199.26Z"/></svg>