<svg version="1.1"
      xmlns="http://www.w3.org/2000/svg"
      xmlns:xlink="http://www.w3.org/1999/xlink"  id="snapshot-05439" width="250" height="250" viewBox="0 0 250 250"><desc>This image was made on Patterninja.com</desc><defs>
<!-- image 45837 -->
<g id="transformed-45837" data-image="45837" transform="translate(60.1540286525061, 42.15402865250611) rotate(340, 64.8459713474939, 64.84597134749389)"><g><svg version="1.1" width="129.6919426949878px" height="129.69194269498777px" viewBox="0 0 129.6919426949878 129.69194269498777"><g id="original-45837"><svg xmlns="http://www.w3.org/2000/svg" viewBox="0 0 199 199" xmlns:xlink="http://www.w3.org/1999/xlink" version="1.1" preserveAspectRatio="xMidYMid meet">
  <path fill-rule="evenodd" d="M114.085 103.404c58.707 15.731 39.275 49.392-3.701 6.413 42.976 42.979 9.32 62.41-6.412 3.7 15.732 58.71-23.134 58.71-7.403 0-15.731 58.71-49.39 39.279-6.41-3.7-42.98 42.979-62.411 9.318-3.702-6.413-58.71 15.731-58.71-23.132 0-7.402-58.71-15.73-39.278-49.39 3.701-6.41-42.979-42.98-9.32-62.411 6.41-3.702-15.73-58.71 23.136-58.71 7.404 0 15.732-58.71 49.388-39.277 6.412 3.702 42.976-42.98 62.408-9.32 3.7 6.41 58.708-15.73 58.708 23.133 0 7.402zm53.866 35.376a6.336 6.336 0 1 1 10.976 6.335 6.338 6.338 0 0 1-8.658 2.32 6.338 6.338 0 0 1-2.318-8.655zm-67.68 51.747a6.336 6.336 0 1 1 0-12.672 6.336 6.336 0 1 1 0 12.672zm-70-43.091a6.338 6.338 0 1 1 2.32-8.656 6.337 6.337 0 0 1-2.32 8.656zm2.319-86.807a6.338 6.338 0 0 1-8.656 2.32 6.337 6.337 0 1 1 8.656-2.32zM100.27 8.88a6.335 6.335 0 0 1 6.337 6.336 6.336 6.336 0 1 1-6.337-6.336zm70 43.093a6.336 6.336 0 0 1 8.655 2.319 6.337 6.337 0 1 1-8.656-2.32zm-30.923 115.413a6.336 6.336 0 1 1 6.335 10.972 6.334 6.334 0 0 1-8.655-2.319 6.331 6.331 0 0 1 2.32-8.653zm-75.832 8.654a6.337 6.337 0 1 1-10.974-6.339 6.337 6.337 0 0 1 10.974 6.34zm-47.732-70a6.335 6.335 0 0 1-6.334-6.335 6.336 6.336 0 1 1 6.334 6.336zm45.414-74.016a6.338 6.338 0 1 1 2.318-8.657 6.34 6.34 0 0 1-2.318 8.657zm75.83-8.657a6.337 6.337 0 0 1 8.655-2.32 6.336 6.336 0 1 1-6.335 10.977 6.338 6.338 0 0 1-2.32-8.657zm47.73 70.001a6.336 6.336 0 1 1-6.336 6.337c0-3.5 2.837-6.337 6.336-6.337zm-60.718-.032c101.012-27.067 67.58-84.979-6.369-11.032 73.948-73.947 16.038-107.383-11.03-6.367 27.068-101.016-39.806-101.016-12.738 0C66.834-25.079 8.922 8.357 82.87 82.304 8.923 8.357-24.511 66.269 76.503 93.336c-101.014-27.067-101.014 39.804 0 12.737-101.014 27.067-67.58 84.98 6.368 11.03-73.948 73.95-16.037 107.384 11.03 6.37-27.067 101.014 39.807 101.014 12.739 0 27.068 101.014 84.978 67.58 11.03-6.37 73.948 73.95 107.38 16.037 6.37-11.03 101.01 27.067 101.01-39.804 0-12.737z" fill="rgba(57, 108, 110, 0.4186046511627907)" stroke="none"/>
  <path fill-rule="evenodd" d="M117.552 99.128c0 9.225-7.479 16.705-16.705 16.705-9.226 0-16.704-7.48-16.704-16.705 0-9.226 7.478-16.707 16.704-16.707s16.705 7.481 16.705 16.707" fill="rgba(206, 209, 211, 1.1383928571428572)" stroke="none"/>
</svg>
</g></svg></g></g>
<!-- /image 45837 -->

<!-- image 64698 -->
<g id="transformed-64698" data-image="64698" transform="translate(-125, -125) rotate(0, 125, 125)"><g><svg version="1.1" width="250px" height="250px" viewBox="0 0 250 250"><g id="original-64698"><svg xmlns="http://www.w3.org/2000/svg" viewBox="0 0 400 400" xmlns:xlink="http://www.w3.org/1999/xlink" version="1.1" preserveAspectRatio="xMidYMid meet">
  <path d="M200 38C130.1 38 73.3 94.8 73.3 164.7c0 34.5 13.6 66.7 38.3 90.8 1 .9 2.2 1.4 3.5 1.4 1.3 0 2.6-.5 3.6-1.5 1.9-2 1.9-5.1-.1-7.1-22.8-22.2-35.3-51.8-35.3-83.6C83.3 100.4 135.6 48 200 48c64.3 0 116.7 52.3 116.7 116.7 0 29.7-11.2 58-31.4 79.6-1.9 2-1.8 5.2.2 7.1 2 1.9 5.2 1.8 7.1-.2 22-23.5 34.1-54.2 34.1-86.5C326.7 94.8 269.8 38 200 38z" fill="rgba(95, 124, 138, 0.38953488372093026)" stroke="none"/>
  <path d="M128.3 196.9c.8 1.9 2.7 3.1 4.6 3.1.6 0 1.3-.1 1.9-.4 2.6-1 3.8-4 2.7-6.5-3.3-8.1-5-16.8-5-25.6 0-37.2 30.3-67.4 67.4-67.4 37.2 0 67.4 30.3 67.4 67.4 0 8.4-1.5 16.6-4.5 24.3-1 2.6.3 5.5 2.9 6.5s5.5-.3 6.5-2.9c3.4-8.9 5.2-18.3 5.2-27.9 0-42.7-34.7-77.4-77.4-77.4s-77.4 34.7-77.4 77.4c-.1 10.1 1.9 20 5.7 29.4z" fill="rgba(95, 124, 138, 0.47674418604651164)" stroke="none"/>
  <path d="M297.5 185.9c2.7.5 5.3-1.3 5.8-4s-1.3-5.3-4-5.8c-8.1-1.5-15.9 3.9-17.4 12.1-.7 3.9.2 7.9 2.4 11.2 2.3 3.3 5.7 5.5 9.6 6.2.3.1.6.1.9.1 2.4 0 4.5-1.7 4.9-4.1.5-2.7-1.3-5.3-4-5.8-1.3-.2-2.4-1-3.2-2.1-.8-1.1-1-2.4-.8-3.7.5-2.8 3.1-4.6 5.8-4.1z" fill="rgba(221, 221, 221, 1)" stroke="none"/>
  <path d="M285.9 116.3c2.5-1.2 3.5-4.2 2.3-6.7-1.2-2.5-4.2-3.5-6.7-2.3-3.6 1.8-6.3 4.8-7.6 8.6-1.3 3.8-1 7.8.7 11.4 2.6 5.3 7.9 8.4 13.5 8.4 2.2 0 4.4-.5 6.5-1.5 2.5-1.2 3.5-4.2 2.3-6.7-1.2-2.5-4.2-3.5-6.7-2.3-2.5 1.2-5.4.2-6.6-2.3-1.2-2.4-.2-5.4 2.3-6.6z" fill="rgba(221, 221, 221, 1)" stroke="none"/>
  <path d="M227.5 64.2c-2.6-.9-5.4.6-6.3 3.2-1.2 3.8-.9 7.9.9 11.4 1.8 3.6 4.9 6.2 8.7 7.4 1.5.5 3.1.7 4.6.7 6.3 0 12.2-4 14.2-10.3.9-2.6-.6-5.4-3.2-6.3-2.6-.9-5.4.6-6.3 3.2-.8 2.6-3.7 4-6.3 3.2-1.3-.4-2.3-1.3-2.9-2.5-.6-1.2-.7-2.5-.3-3.8 1-2.6-.5-5.4-3.1-6.2z" fill="rgba(221, 221, 221, 1)" stroke="none"/>
  <path d="M169.1 76.3c-2.4 1.3-5.4.5-6.8-1.9-1.3-2.4-4.4-3.3-6.8-1.9-2.4 1.3-3.3 4.4-1.9 6.8 2.7 4.9 7.8 7.7 13.1 7.7 2.5 0 5-.6 7.3-1.9 7.2-4 9.8-13.2 5.8-20.4-1.3-2.4-4.4-3.3-6.8-1.9-2.4 1.3-3.3 4.4-1.9 6.8 1.2 2.4.4 5.4-2 6.7z" fill="rgba(221, 221, 221, 1)" stroke="none"/>
  <path d="M107.8 127c-2.6-1-5.5.3-6.5 2.9s.3 5.5 2.9 6.5c1.8.7 3.6 1 5.4 1 6 0 11.7-3.6 14-9.6 3-7.7-.9-16.4-8.6-19.4-2.6-1-5.5.3-6.5 2.9s.3 5.5 2.9 6.5 3.8 3.9 2.8 6.4c-1 2.5-3.9 3.8-6.4 2.8z" fill="rgba(221, 221, 221, 1)" stroke="none"/>
  <path d="M106 199.8c-2.7.7-4.3 3.4-3.6 6.1.6 2.2 2.6 3.7 4.8 3.7.4 0 .8-.1 1.3-.2 8-2.1 12.8-10.3 10.7-18.3-1-3.9-3.5-7.1-6.9-9.1-3.5-2-7.5-2.6-11.3-1.6-2.7.7-4.3 3.4-3.6 6.1.7 2.7 3.4 4.3 6.1 3.6 1.3-.3 2.6-.2 3.8.5 1.1.7 2 1.7 2.3 3 .7 2.8-.9 5.5-3.6 6.2z" fill="rgba(221, 221, 221, 1)" stroke="none"/>
  <circle cx="296.2" cy="156.8" r="3.8" fill="rgba(221, 221, 221, 1)" stroke="none"/>
  <circle cx="260.1" cy="92.8" r="3.8" fill="rgba(221, 221, 221, 1)" stroke="none"/>
  <circle cx="202.6" cy="70.9" r="3.8" fill="rgba(221, 221, 221, 1)" stroke="none"/>
  <circle cx="135.4" cy="93.8" r="3.8" fill="rgba(221, 221, 221, 1)" stroke="none"/>
  <circle cx="102.2" cy="156.8" r="3.8" fill="rgba(221, 221, 221, 1)" stroke="none"/>
  <path d="M138.6 215.7c-13.1 5.3 39.1 20.2 39.1 20.2s-26-25.5-39.1-20.2z" fill="rgba(221, 221, 221, 1)" stroke="none"/>
  <path d="M277.8 251.4c.8-4.1 2.5-8.3 4.1-12.4 4.2-10.4 9.4-23.3-3-33.4-21.4-17.6-52.9 12.7-60.2 20.3-1.6-.9-3.2-1.4-5-1.4h-20.3c-1.9 0-3.7.5-5.3 1.6-5.7-6.1-38.7-39.2-60.9-21-12.3 10.1-7.1 23-3 33.4 1.7 4.1 3.4 8.4 4.1 12.4.4 1.9-.9 4.8-2.4 8.2-3.2 7.5-7.6 17.7-2.1 32.3 3.2 8.5 9 11.3 13.4 12 1.1.2 2.3.3 3.5.3 2.2 0 4.5-.4 6.8-1l-14.9 26.4c-1 1.7-.8 3.9.3 5.4 1.2 1.6 3.2 2.3 5.1 1.9l16.3-3.6 2.9 19.6c.3 2.1 1.9 3.8 4.1 4.2.3.1.6.1.9.1 1.8 0 3.5-1 4.4-2.6l37.6-68.7 39.7 72.5c.9 1.6 2.6 2.6 4.4 2.6.3 0 .6 0 .9-.1 2.1-.4 3.8-2.1 4.1-4.2l2.9-19.6 16.3 3.6c1.9.4 3.9-.3 5.1-1.9 1.2-1.6 1.3-3.7.3-5.4l-16.5-29c1.4.2 2.7.4 4.1.4 1.2 0 2.3-.1 3.5-.3 4.3-.8 10.2-3.5 13.4-12 5.5-14.6 1.1-24.9-2.1-32.3-1.6-3.4-2.8-6.4-2.5-8.3zm-84.3-16.9h20.2c1.3.4 4.7 5.7 4.7 15.3 0 9.6-3.4 14.9-4.6 15.3h-20.2c-1.3-.4-4.6-5.7-4.6-15.3-.1-9.6 3.3-14.9 4.5-15.3zm-54.3 59.1c-1.7-.3-4.1-1.2-5.8-5.7-4.1-10.9-1-18 1.9-24.8 2-4.7 3.9-9.1 3-14.1-1-5-2.9-9.7-4.7-14.3-4.7-11.7-6-16.9 0-21.9 16.3-13.3 47.6 20.5 47.9 20.8l.3.3c-1.9 4.2-3 9.7-3 15.8 0 5.9 1 11.1 2.7 15.3-8.2 9.4-16.6 16.9-24.1 21.9-.3.1-.6.3-.8.5-6.9 4.8-13.1 7-17.4 6.2zm25.9 42.6l-1.5-10.1c-.2-1.4-1-2.6-2.1-3.4-1.1-.8-2.6-1.1-3.9-.8l-10.5 2.3 16.7-29.4c10.1-6.9 19.2-16.2 24.1-21.6 1.7 1.2 3.7 1.8 5.8 1.8h5l-33.6 61.2zm98.5-8.1l-10.5-2.3c-1.4-.3-2.8 0-3.9.8s-1.9 2-2.1 3.4l-1.5 10.1-35.5-65h3.8c1.7 0 3.3-.4 4.8-1.2 5.5 6.1 16.2 17 27.8 24l17.1 30.2zm7.4-64.5c3 6.9 6 14 1.9 24.8-1.7 4.5-4.1 5.4-5.8 5.7-8.9 1.6-25.7-9.6-42-28 2-4.3 3.2-10 3.2-16.4 0-6.3-1.1-11.9-3.1-16.1 4.2-4.4 32.3-32.7 47.4-20.3 6 4.9 4.7 10.2 0 21.9-1.8 4.6-3.7 9.3-4.7 14.3-.8 5 1.1 9.4 3.1 14.1z" fill="rgba(95, 124, 138, 0.37209302325581395)" stroke="none"/>
  <path d="M267.7 216.2c-13.1-5.3-39.1 20.2-39.1 20.2s52.3-14.9 39.1-20.2z" fill="rgba(221, 221, 221, 1)" stroke="none"/>
</svg>
</g></svg></g></g>
<!-- /image 64698 -->
</defs><rect x="0" y="0" width="250" height="250" fill="rgba(96, 125, 139, 0.0755813953488372)"></rect><use xlink:href="#transformed-45837" transform="translate(-250, -250)"></use><use xlink:href="#transformed-45837" transform="translate(0, -250)"></use><use xlink:href="#transformed-45837" transform="translate(250, -250)"></use><use xlink:href="#transformed-45837" transform="translate(-250, 0)"></use><use xlink:href="#transformed-45837" transform="translate(0, 0)"></use><use xlink:href="#transformed-45837" transform="translate(250, 0)"></use><use xlink:href="#transformed-45837" transform="translate(-250, 250)"></use><use xlink:href="#transformed-45837" transform="translate(0, 250)"></use><use xlink:href="#transformed-45837" transform="translate(250, 250)"></use><use xlink:href="#transformed-64698" transform="translate(-250, -250)"></use><use xlink:href="#transformed-64698" transform="translate(0, -250)"></use><use xlink:href="#transformed-64698" transform="translate(250, -250)"></use><use xlink:href="#transformed-64698" transform="translate(-250, 0)"></use><use xlink:href="#transformed-64698" transform="translate(0, 0)"></use><use xlink:href="#transformed-64698" transform="translate(250, 0)"></use><use xlink:href="#transformed-64698" transform="translate(-250, 250)"></use><use xlink:href="#transformed-64698" transform="translate(0, 250)"></use><use xlink:href="#transformed-64698" transform="translate(250, 250)"></use></svg>