<svg xmlns="http://www.w3.org/2000/svg" xmlns:xlink="http://www.w3.org/1999/xlink" viewBox="0 0 300 300"><defs><style>.cls-1,.cls-13{fill:none;}.cls-2{fill:#c7c7c7;}.cls-10,.cls-11,.cls-12,.cls-13,.cls-14,.cls-2,.cls-3,.cls-4,.cls-5,.cls-6,.cls-7,.cls-8,.cls-9{opacity:0.27;}.cls-3{fill:#d5d5d5;}.cls-20,.cls-4{fill:#d9d9d9;}.cls-5{fill:#ebebeb;}.cls-6{fill:#fbfbfb;}.cls-17,.cls-7{fill:#d4d4d4;}.cls-8{fill:#c1c1c1;}.cls-9{fill:#b3b3b3;}.cls-10{fill:#d2d2d2;}.cls-11{fill:#dcdcdc;}.cls-12{fill:#b2b2b2;}.cls-15{clip-path:url(#clip-path);}.cls-16{fill:#eaeaea;}.cls-18{fill:#b8b8b8;}.cls-19{fill:#ccc;}.cls-21{fill:#d7d7d7;}.cls-22{fill:#cdcdcd;}.cls-23{fill:#fcfcfc;}</style><clipPath id="clip-path"><rect class="cls-1" x="65.8" y="-10.92" width="226.64" height="226.64" transform="translate(-4.7 8.7) rotate(-2.74)"/></clipPath></defs><title>pattern</title><g id="Слой_1" data-name="Слой 1"><path class="cls-2" d="M106.32,195.26l4.74-1.68,1.4.32a10.78,10.78,0,0,0-.91,1c-1.73,2.51-4.24,2.75-7,2.85-1.76.07-3.49,1.19-5.23,1.83l1.57,1.67c-4.68.55-8.45,3.47-13,4.71a124.87,124.87,0,0,0-40,18.85,59.25,59.25,0,0,0-19.54,22.83c-2.62,5.45,3.25,6.28,4.8,9.43l-2.2.95c3.8,3.06,7.92,2.58,12.17,1.89.8-.13,1.81,1,2.72,1.51l-.79.79c-4.57,2.85-9.65,2.66-14.75,2.48a5.72,5.72,0,0,0-1.56.41A15.13,15.13,0,0,0,30,266.32c4.75,3.39,10.17.89,15.57,1.47-5.53,3.13-11,.72-16.33,1.23-.19-.49-.39-1,0-.09-.6-.75-.27-.34.05.07,2.3,4.08,5.94,1.24,8.93,1.74l1.29.4.38,0,2.6.9-2.56,1.66C26,276.22,25.06,262.54,18.53,256.07c-3.11-3.09,3.29-16.28,8.31-20,9.34-7,17.09-16,27.6-21.47,2.34-1.22,5-1.93,7.26-3.18,1.14-.62,1.89-2,2.82-3C63.56,208.06,107.44,193.82,106.32,195.26ZM4.62,202.31c-.28-.21-.42-.39-.54-.38a.9.9,0,0,0-.53.27c0,.06.09.29.14.44Z"/><path class="cls-2" d="M158.79,193.62c8.38,1.62,13.1,10.07,12.35,22.12l-.37.86-.47.85-2.14-.95c0,.74,0,1.49,0,2.23-.7.71-1.39,1.43-2.08,2.14l-1.74-1.33c.31-.27.62-.54.94-.8l.79-.87a57.76,57.76,0,0,0,2.12-6.4c.2-.93-.54-2.06-.85-3.1-.31.1-.73.11-.9.32-1.84,2.19-3.8,4.29-5.41,6.64-4.5,6.59-9.46,12.74-15.75,17.74,2.42-3.45,5.09-6.67,7.7-9.95a8.92,8.92,0,0,0,.93-2c-.44.34-.92,1-1.3,1-3-.45-2.17,2.75-3.43,3.59-7.77,5.14-15.39,10.68-23.7,14.79-7.9,3.91-15.89,7.86-25,9.16-6,.87-11.77,3.73-17.6,5.8C72.52,259.11,61.62,260,51,262.15c-.45-1-.64-2.29-1.39-2.78s-2.41,1.17-3.42-.46l4-1c43.92-6.75,86.61-16.12,114.54-52.64,2.21-7.45-2.5-7.94-5.92-9.59C157.57,195,158,194.29,158.79,193.62Z"/><path class="cls-3" d="M164.3,219.54l1.74,1.33c-2.93,7.45-10.26,10.66-15.57,15.75a46.38,46.38,0,0,1-13,8.56c-6.85,3.07-12.65,7.81-19.88,10.47-7.78,2.86-15.58,5.77-23.49,8.23-7.41,2.3-15.09,3.76-22.6,5.74-1.63.43-2.63-2-5.06.16-2.8,2.47-7.34,2.83-11.59,2.72-5-.12-10,.73-14.94,1.16L42.46,272l-2.6-.9c9.22-1.5,18.47-2.78,27.64-4.55,12.52-2.42,24.6-6.68,37-9.74,9.59-2.38,18.33-8.24,27.41-12.62C144.37,238.18,155,229.68,164.3,219.54ZM80.69,264.75c.11-.21.29-.44.25-.5a.71.71,0,0,0-.49-.28c-.12,0-.22.27-.33.42Z"/><path class="cls-4" d="M158.79,193.62c-.76.67-1.22,1.35,0,2.07-9.4-3.8-19-2.23-28.6-1.09-1.12.13-2.22.46-3.33.69h0c-2.41-1.47-3.36,3.8-6,1.29l-.55-1.14-1.13.72c-.68,0-1.36.07-.06,0-1.17.5-.56.24,0,0l1.72.43-20,4.7-1.57-1.67c1.74-.64,3.47-1.76,5.23-1.83,2.81-.1,5.32-.34,7-2.85a10.78,10.78,0,0,1,.91-1l-1.4-.32a49,49,0,0,1,4.71-1.93,27.66,27.66,0,0,1,4.09-.65c.06,2-1.85,1.29-2.72,2a3.06,3.06,0,0,0-.66,1.19,1,1,0,0,0,.58.34c6.36-.78,12.94-.82,19-2.58,7.18-2.07,13.86-.14,20.74.51C157.51,192.52,158.14,193.22,158.79,193.62Z"/><path class="cls-5" d="M100.84,201.26l20-4.7h0c2.63,2.51,3.58-2.76,6-1.29.08.27.17.54.25.81l.18-.05-.45-.75c1.11-.23,2.21-.56,3.33-.69,9.59-1.14,19.2-2.71,28.6,1.09,3.42,1.65,8.13,2.14,5.92,9.59-27.93,36.52-70.62,45.89-114.54,52.64-1.3-.32-2.63-.57-3.9-1a8.54,8.54,0,0,1-1.8-1.07c.61-.26,1.23-.77,1.82-.75,8,.34,15.53-1.86,23-4.35.56-.19,2,.49,1.46-1-.16-.43-1.68-.83-2.28-.57-4.83,2.14-10,2.67-15.09,2.67-5.48,0-11.38,3-16.4-1.67a7.17,7.17,0,0,1,.82-2.28,6,6,0,0,1,2-1.05l-2.06-.58c4.38-6.64,11.35-10.47,17.44-15.3,5.62-2.07,8.95-7.31,14.42-9.9,10-4.73,19.66-10.09,31.64-14.34l-5.5,4.65c14.85-5.6,28.81-9.51,43.34-11.12.47-.05.88-.56,1.33-.86-.7-.22-1.45-.73-2.1-.63-6.6,1-13.23,1.86-19.76,3.24-4.3.91-8.58,4.06-12.61,3.64-7.48-.78-13.25,1.86-19.62,4.95-8.75,4.27-17.53,8.42-25.86,13.45-6.14,3.71-12.2,7.56-19,11.76l3.55.32a9.32,9.32,0,0,0-.94.5c-5.46,3.81-12.15,7-8,15.71,1.49,3,4.69,3.25,7.21,4.61a10.16,10.16,0,0,1,1.41,1.08,7.68,7.68,0,0,1-1.74.31c-2.44-.12-4.88-.33-7.31-.5h-.39L34,257.45l-.89-.37c-1.55-3.15-7.42-4-4.8-9.43a59.25,59.25,0,0,1,19.54-22.83,124.87,124.87,0,0,1,40-18.85C92.39,204.73,96.16,201.81,100.84,201.26Zm44.3-2.15c2.66-1.39.47,2.34,2.24,2.11,1.18-.14,3.15-.39,3.08,1.25-.08,1.89,1.19,4.31-1.3,5.74-.36.21-.53.76-.79,1.15.44.1,1.09.45,1.29.28,2.83-2.48,7.31-4.33,5.83-9.07-.88-2.81-4.54-1.77-6.94-2.16-.55-.1-3.35-3.54-3.39.72l-3.12.76.21.75Zm-41,20.17c0,2.58.42,4.52,2.42,5.36,7.54,3.18,24.45-4.33,27.43-12,1.1-2.81-1-3.66-2.6-4.81-1.76-1.28-5.75-.56-6.75-.47a31,31,0,0,0-14,5C107.6,214.31,105.21,216.4,104.13,219.28Zm-38.86,23c5.74-.33,11-4.7,16.28-8.75,2.48-1.89,1.09-3.69-.9-5-6.47-4.41-12.73-2.27-18.14,1.64-2.64,1.89-7.61,3.28-6.47,8C56.9,241.74,60.54,242.2,65.27,242.3Zm51.94-9.21c3.38-3.15,8.21-2.79,12.55-5.31,7.33-4.25,14.58-8.44,21.07-13.89A8.52,8.52,0,0,0,152,212.5a4.5,4.5,0,0,0-1.55.28c-6.31,3.66-12.27,8.14-18.94,10.9-13.39,5.54-25.33,14.41-39.82,17.45-1.41.3-2.55,1.88-3.81,2.86,1.62-.11,3.24-.26,4.86-.33,1.88-.08,3.42-2.47,4-2.37,5.2.93,9.1-2.16,13.43-3.8,2.76-1,5.35-2.51,8.36-4-.72-.24-1-.31-1.25-.42S116.82,232.84,117.21,233.09Z"/><path class="cls-6" d="M164.3,219.54c-9.34,10.14-19.93,18.64-32.4,24.65-9.08,4.38-17.82,10.24-27.41,12.62-12.39,3.06-24.47,7.32-37,9.74-9.17,1.77-18.42,3.05-27.64,4.55l-.38,0-1.29-.4c-3-.5-6.63,2.34-8.93-1.74l0,0c5.31-.51,10.8,1.9,16.33-1.23-5.4-.58-10.82,1.92-15.57-1.47a15.13,15.13,0,0,1-1.33-1.21,5.72,5.72,0,0,1,1.56-.41c5.1.18,10.18.37,14.75-2.48l6-.07c10.64-2.15,21.54-3,31.87-6.71,5.83-2.07,11.58-4.93,17.6-5.8,9.1-1.3,17.09-5.25,25-9.16,8.31-4.11,15.93-9.65,23.7-14.79,1.26-.84.41-4,3.43-3.59.38.05.86-.64,1.3-1a8.92,8.92,0,0,1-.93,2c-2.61,3.28-5.28,6.5-7.7,9.95,6.29-5,11.25-11.15,15.75-17.74,1.61-2.35,3.57-4.45,5.41-6.64.17-.21.59-.22.9-.32.31,1,1,2.17.85,3.1a57.76,57.76,0,0,1-2.12,6.4l-.79.87Z"/><path class="cls-7" d="M51,262.15l-6,.07.79-.79c-.91-.53-1.92-1.64-2.72-1.51-4.25.69-8.37,1.17-12.17-1.89l2.2-.95.89.37.15,1.1,1.12-.65h.38c.37.29.73.58,0,0,.89.27.44.14,0,0,2.43.17,4.87.38,7.31.5a7.68,7.68,0,0,0,1.74-.31A10.16,10.16,0,0,0,43.27,257c-2.52-1.36-5.72-1.64-7.21-4.61l.87-2.16c5,4.66,10.92,1.66,16.4,1.67,5.1,0,10.26-.53,15.09-2.67.6-.26,2.12.14,2.28.57.52,1.44-.9.76-1.46,1-7.46,2.49-15,4.69-23,4.35-.59,0-1.21.49-1.82.75a8.54,8.54,0,0,0,1.8,1.07c1.27.41,2.6.66,3.9,1l-4,1c1,1.63,2.54-.13,3.42.46S50.53,261.19,51,262.15Zm-3.7,0,2.13-1c-.44-.27-.9-.77-1.31-.73s-.73.65-1,1.08C47,261.75,47.27,262.14,47.28,262.19Z"/><path class="cls-6" d="M29.26,269c-.32-.41-.65-.82-.05-.07-.36-.88-.16-.4,0,.09Z"/><path class="cls-3" d="M38.19,270.74l1.29.4Z"/><path class="cls-6" d="M80.69,264.75l-.57-.36c.11-.15.21-.41.33-.42a.71.71,0,0,1,.49.28C81,264.31,80.8,264.54,80.69,264.75Z"/><path class="cls-8" d="M104.13,219.28c1.08-2.88,3.47-5,6.46-6.86a31,31,0,0,1,14-5c1-.09,5-.81,6.75.47,1.56,1.15,3.7,2,2.6,4.81-3,7.66-19.89,15.17-27.43,12C104.55,223.8,104.16,221.86,104.13,219.28Zm24-5.27c0-.09.61-1.64-1.35-.94-2.36.84-5.08,1.51-6.73,3.16-1.27,1.27-5.88.41-3.65,4C117.56,222.09,127.88,217.22,128.14,214Z"/><path class="cls-9" d="M65.27,242.3c-4.73-.1-8.37-.56-9.23-4.13-1.14-4.74,3.83-6.13,6.47-8,5.41-3.91,11.67-6.05,18.14-1.64,2,1.35,3.38,3.15.9,5C76.24,237.6,71,242,65.27,242.3Zm-3-2.43a28.45,28.45,0,0,0,13.42-5.1c1.07-.76,4-.92,3-3.15-.62-1.41-1.83.42-2.68.66a64.76,64.76,0,0,0-13.51,5.31c-.65.35-2,0-1.53,1.3C61.14,239.41,62,239.7,62.23,239.87Z"/><path class="cls-10" d="M45,236.2l-3.55-.32c6.78-4.2,12.84-8,19-11.76,8.33-5,17.11-9.18,25.86-13.45,6.37-3.09,12.14-5.73,19.62-4.95,4,.42,8.31-2.73,12.61-3.64,6.53-1.38,13.16-2.24,19.76-3.24.65-.1,1.4.41,2.1.63-.45.3-.86.81-1.33.86-14.53,1.61-28.49,5.52-43.34,11.12l5.5-4.65c-12,4.25-21.65,9.61-31.64,14.34-5.47,2.59-8.8,7.83-14.42,9.9C50.56,230.33,48.68,235,45,236.2Zm80.48-34.3a1,1,0,0,0-.32-.16,1.39,1.39,0,0,0-.4.06,1.31,1.31,0,0,0,.37.26C125.26,202.08,125.39,202,125.51,201.9Z"/><path class="cls-11" d="M117.21,233.09c-.39-.25-.19-.09,0,0s.53.18,1.25.42c-3,1.45-5.6,2.92-8.36,4-4.33,1.64-8.23,4.73-13.43,3.8-.6-.1-2.14,2.29-4,2.37-1.62.07-3.24.22-4.86.33,1.26-1,2.4-2.56,3.81-2.86,14.49-3,26.43-11.91,39.82-17.45,6.67-2.76,12.63-7.24,18.94-10.9a4.5,4.5,0,0,1,1.55-.28,8.52,8.52,0,0,1-1.12,1.39c-6.49,5.45-13.74,9.64-21.07,13.89C125.42,230.3,120.59,229.94,117.21,233.09Z"/><path class="cls-12" d="M45,236.2c3.65-1.19,5.53-5.87,10.15-5.16-6.09,4.83-13.06,8.66-17.44,15.3l2.06.58a6,6,0,0,0-2,1.05,7.17,7.17,0,0,0-.82,2.28l-.87,2.16c-4.12-8.71,2.57-11.9,8-15.71A9.32,9.32,0,0,1,45,236.2Z"/><path class="cls-2" d="M35.24,257.9l-1.12.65-.15-1.1Z"/><path class="cls-2" d="M47.28,262.19c0-.05-.24-.44-.13-.66.22-.43.59-1,1-1.08s.87.46,1.31.73Z"/><path class="cls-2" d="M35.63,257.91h0c.72.58.36.29,0,0Z"/><path class="cls-13" d="M62.23,239.87c-.23-.17-1.09-.46-1.26-1-.44-1.34.88-.95,1.53-1.3A64.76,64.76,0,0,1,76,232.28c.85-.24,2.06-2.07,2.68-.66,1,2.23-2,2.39-3,3.15A28.45,28.45,0,0,1,62.23,239.87Z"/></g><g id="Слой_2" data-name="Слой 2"><g class="cls-14"><g class="cls-15"><g class="cls-15"><path class="cls-16" d="M242.63,121.15l5.73,4.12-1.08.63.65,2.18c-.1.44-.19.88-.29,1.32l.86-.8,1.09-.08c1.43.84,1.56,4.52,4.49,2,.79.87,1.57,1.75,2.36,2.63-3.42,6.48-4.78-3.43-7.7-1l1.06-1.69c-3,1.24-4.17-.51-6-2-2.52-2-6.17-2.53-9.34-3.69l-.48-.43-1.18-1.72,0,0-1.14-1.67c.12-.28.23-.56.34-.84l-.44-.13.06,1-1,1.73-1.21-1.59.18-1.59-1.86.57c-30.87-19.24-61.41-39-95.23-57.51l-3,1.48,5.35-5.68a42.89,42.89,0,0,0,4.64,3.93c.49.32,1.72-.52,2.61-.83l-6.26-4.34-2.45-4.68-1.15-2.21c.35-.82.65-2.16,1.74-.81.7.86,3.11.47,2.13,2.91-.18.46,2,2.24,3.41,2.89,8,3.77,16,7.32,24,11.1,3,1.4-.33,2.23-.54,3.36h0c8.42-1.52,13.22,5.14,19.4,8.64,12.38,7,23.07,16.32,34.1,25.18l-1.65.37c.4.57.72,1.53,1.21,1.62a8.27,8.27,0,0,0,2.68-.4l.6.5c-.15,5.42,7.61,4.82,7.65,10.09l1.74,1c3-.75,4.5,1.54,6.26,3.07,2.81,2.46,3.63,2.63,4.34.27h0l3.36,1m-19-5.71.89.39.09-.47-1,.08-.69-.66a1.15,1.15,0,0,0-.14.17l.84.49M169,77.27c-.73.55-1.23.81-1.2.93a2.36,2.36,0,0,0,.65,1.37q21.66,13.82,43.37,27.53c.36.22,1,.05,1.5,0,.07,0,.12-.7.11-.7-4-.69-3.22-5.23-6.07-7.29-6.08-4.4-12.08-8.45-19.22-11.23-6.76-2.63-12.83-7-19.14-10.59m-15.29-7.09-.27,1c1.94.94,3.9,1.84,5.81,2.84.71.38,1.23,1.15,2,1.48,2,.93,4.08,1.82,5.69-.71-1.76-.72-3.49-1.53-5.29-2.14-2.6-.89-5.25-1.64-7.89-2.45m-7.52-5.46-1,.59a7.48,7.48,0,0,0,1,1.11c.13.09.52-.17.8-.26l-.82-1.44m42.58,19.83c-.19.31-.44.52-.42.71s.31.35.48.52c.15-.18.42-.37.42-.56s-.25-.38-.48-.67M156.27,65.36a6.82,6.82,0,0,0-1.1-.42c-.08,0-.23.29-.34.45a4.42,4.42,0,0,0,.86.45c.11,0,.29-.23.58-.48M158,67.11c0-.06.11-.13.1-.19s-.08-.13-.13-.19l-.19.32.22.06m-8,.08c-.08,0-.22.09-.22.12a2.65,2.65,0,0,0,.09.49c.07,0,.21-.09.21-.13a2,2,0,0,0-.08-.48"/><path class="cls-17" d="M234.42,124.87c3.17,1.16,6.82,1.71,9.34,3.69,1.87,1.47,3,3.22,6,2l-1.06,1.69c2.92-2.46,4.28,7.45,7.7,1,6.36,6.44,12.82,12.78,19,19.37,2,2.11,3.07,5.12,1.43,7.91-3,5.16-8.28,6.31-13.58,5.7-16.7-1.94-31.94-9.14-47.92-13.74-.31-.08-.46-.71-.69-1.08a22.1,22.1,0,0,1,3.85-2.14c.95-.31,2.62.51,3.1,0,.82-.86,1-2.37,1.38-3.61.32,1.76,0,4.43,1.07,5.11,3.52,2.3,7.5,3.9,11.31,5.77,0-.59.34-1.38.08-1.73-6.36-8.39-4-14.55,4.77-19.14l-5.84-10.75m7.28,27.66a23.88,23.88,0,0,0,13.62,6.39c4.91.63,11.48.42,13.37-3.53,1.73-3.62-4.69-6.18-7.71-8.92-6.47-5.85-14.44-2.16-21.75-2.83-1.54-.14-3.49.28-3,1.69,1.21,3.6,3.17,6.95,4.83,10.39.25-1.23.5-2.47.65-3.19m30,5.87c-.83-.6-1.46-1.18-1.55-1.11-1,.85-1.94,1.8-2.88,2.72.3.25.76.78.87.72,1.11-.65,2.16-1.39,3.56-2.33m.5,1.27c-.11.1-.31.18-.32.28s.12.27.19.4c.11-.09.31-.16.32-.26s-.11-.27-.19-.42"/><path class="cls-16" d="M99.9,80c-3.74-2-7.09-4.5-9.14-8.38.57-1.52,1.14-3,.69-1.85-.86-7.89-5.52-12.13-4.21-18.43-.72,3.65,2.89,2.13,4,3.47-.57-1.35-1.7-2.39-2.14-3.66-.93-2.72,6.94-9.55,9.29-8,3.28,2.22,4.73,1.11,5.51-2l3.16,2.59c0,.51-.11,1,0,0,.26.92.12.44,0,0l1.09-1.38c3.38,3.94,8.7,2.32,12.65,4.39,3.66,1.91,8.89,1.95,9.93,7.42,1.2,2.8.34,6.3-2.18,6.05-3.86-.39-7.46-3-11.24-4.48-3.47-1.34-3.5-7.79-9.39-5.72C96.78,54,95.51,60,104.43,68.28l4.75,5.43-.82-3.51c1.18,1.93,6,1,4.18,5.31l-1.17.07c-.71.51-1.53-2.39-2.16.08-3.48-.19-5.88-10.32-9.62-4.57.48-1.71-6,1.45-7.54-.7,1.51,2.55,4.08,4,6.71,5.26.26.13,1.22-.5,1.35-.93a29.43,29.43,0,0,0,.67-3.75l3.39,3.79-.7.13L102,76l0,0c-2.78.47-.35,2.8-1.4,3.89L99.9,80"/><path class="cls-18" d="M104.43,68.28C95.51,60,96.78,54,107.94,50.08c5.89-2.07,5.92,4.38,9.39,5.72,3.78,1.47,7.38,4.09,11.24,4.48,2.52.25,3.38-3.25,2.18-6.05,1.87,1,1.89-.88,2.62-1.67l2.45,4.68-1,1.24-5.35,5.68c-8.66,2-13.63-4.31-19.5-8.62a21.93,21.93,0,0,0-3.85-2c-.14-.06-.76.45-.81.75-.65,3.58-3.07,7.74,1.84,10,3.72,1.71,8.33,1.86,11.62,4.08,7.59,5.1,1.18,11.12.21,16.77l-4.55-2.51q-1-3.57-1.9-7.13c1.83-4.31-3-3.38-4.18-5.31-.39-2.53-2.6-1.32-3.93-1.92"/><path class="cls-19" d="M133.37,52.56c-.73.79-.75,2.68-2.62,1.67-1-5.47-6.27-5.51-9.93-7.42-3.95-2.07-9.27-.45-12.65-4.39l-1.09,1.38v0l-3.16-2.59c-.78,3.11-2.23,4.22-5.51,2-2.35-1.59-10.22,5.24-9.29,8,.44,1.27,1.57,2.31,2.14,3.66-1.14-1.34-4.75.18-4-3.47-1.31,6.3,3.35,10.54,4.21,18.43.45-1.18-.12.33-.69,1.85q-1.85-3.78-3.67-7.56c1.72-.67.4-1.13-.12-1.64-6.42-15.5,2.88-25.25,22.62-23.71-.42,2.34,1.91,2.15,2.92,3.17,0,.31.08.63.13.94l.43-.1-.57-.85,3.26-.64,7.83,2.92,6.89,5.18,1.74,1,1.15,2.21m-17.12-9.5c-.08.37-.22.62-.15.74a1,1,0,0,0,.6.4c.13,0,.31-.23.47-.36l-.92-.78"/><path class="cls-20" d="M133.72,104.25c6.22,3.21,12.59,6.16,18.63,9.69,6.74,3.94,13,8.63,19.78,12.58s13.72,7.47,20.72,10.94c3.13,1.55,7.38.66,9.51,4.46a12.72,12.72,0,0,0,1.73,2,14,14,0,0,1-2.72-.64c-6.68-3.15-13.32-6.38-20-9.52-.46-.22-1.17.08-1.77.14l.61,2.88c-2.93-.4-3.55-3-5.07-4.85-3.32-4-9.36-3.59-12.79-6.48-2.48-2.09-4.32-5-7.72-6.28-7.84-2.91-14.38-7.93-20.74-13.18-.21-.17-.11-.7-.15-1.06l0-.64"/><path class="cls-21" d="M133.72,104.25l0,.64c-7.36-3-12.93-8.6-19-13.41-4-3.22-9.32-5-12-9.88l.13-.16c4.14-2.55-.79-3.57-.9-5.4l0,0,1.45-1.11.7-.13c2,2.37,4.22,4.65,6,7.18.53.74-3.14,1.85-.77,2.88,1.13.49,3.3-1.38,5-2.18L119,85.15c-1.64,2.18.62,3.13,1.72,4.7l-5.36-1.44c1.69,1.52,3.36,3.07,5.08,4.55,4.42,3.79,8.86,7.53,13.29,11.29"/><path class="cls-22" d="M124.38,92.71c5.4-5.26,7.93.8,11,2.47a237.8,237.8,0,0,1,23.88,15.06,23,23,0,0,0,4.49,2.4c1.27.56,1.06,1.34.34,2.39s-.92,1.23-2.13.44C151.46,108.58,140,103.18,130.35,95c-.88-.75-3.28-2.67-6-2.25"/><path class="cls-17" d="M239.27,120.18c-.71,2.36-1.53,2.19-4.34-.27-1.76-1.53-3.31-3.82-6.26-3.07l-1.74-1c0-5.27-7.8-4.67-7.65-10.09l20,14.47"/><path class="cls-22" d="M176.23,121.62l-1.08.8c-1.88-3.56-5.93-3.94-8.81-6,.5-.19,1.08-.66,1.5-.54a13.88,13.88,0,0,1,8.39,5.78"/><path class="cls-16" d="M130.48,49.33l-6.89-5.18c2.89.94,6.61.77,6.89,5.18"/><path class="cls-16" d="M115.75,41.23l-3.25.64h0c-1-1-3.34-.83-2.92-3.17,2.19.52,4.87-.17,6.16,2.52"/><path class="cls-17" d="M254.08,130.57c-2.93,2.47-3.06-1.21-4.49-2l-2.3-2.62,1.07-.63,5.72,5.3"/><path class="cls-17" d="M227.73,120.19l1.86-.57-.18,1.59-1.68-1"/><path class="cls-21" d="M99.9,80l.68-.07,2.3,1.51-.13.16L99.9,80"/><path class="cls-17" d="M231.65,121.08l1.14,1.67-2.17,0,1-1.73Z"/><path class="cls-17" d="M242.63,121.15l-3.36-1,3.36,1"/><path class="cls-16" d="M87,62.42c.52.51,1.84,1,.12,1.64L87,62.42"/><path class="cls-17" d="M227.62,147.78a4.23,4.23,0,0,1,.43.69c0,.06-.2.22-.31.34a3.68,3.68,0,0,1-.46-.6c0-.06.18-.24.34-.43"/><path class="cls-17" d="M232.76,122.72l1.18,1.72-1.18-1.72"/><path class="cls-17" d="M219.52,148a1.37,1.37,0,0,1-.13-.2l.36-.12c0,.08,0,.18,0,.24s-.14.06-.21.08"/><path class="cls-17" d="M247.93,128.08l.57.52-.86.8c.1-.44.19-.88.29-1.32"/><path class="cls-17" d="M223.6,115.45l1-.09-.09.47-.89-.39Z"/><path class="cls-17" d="M223.61,115.44l-.84-.49a1.15,1.15,0,0,1,.14-.17l.69.67Z"/><path class="cls-23" d="M271.73,158.4c-1.4.94-2.45,1.68-3.56,2.33-.11.06-.57-.47-.87-.72.94-.92,1.87-1.87,2.88-2.72.09-.07.72.51,1.55,1.11"/><path class="cls-23" d="M272.24,159.68c.07.14.21.28.18.41s-.21.17-.32.26c-.07-.13-.21-.28-.19-.4s.21-.18.33-.27"/><path class="cls-18" d="M111.36,75.58l0,1-2.12-1c.63-2.47,1.45.43,2.15-.08"/><path class="cls-19" d="M107.08,43.8c.13.48.27,1,0,0-.11,1,0,.46,0,0v0"/><path class="cls-16" d="M116.25,43.06l.92.78c-.16.13-.34.39-.47.36a1,1,0,0,1-.6-.4c-.07-.12.07-.37.15-.74"/><path class="cls-16" d="M112.5,41.87c.19.29.38.57.58.85l-.44.1c0-.31-.09-.63-.13-.94Z"/></g></g></g></g></svg>